<svg width="45" height="57" viewBox="0 0 45 57" fill="none" xmlns="http://www.w3.org/2000/svg">
<path d="M44.3912 23.1517V43.5119C44.3912 44.2139 43.8173 44.7846 43.1113 44.7846H2.15592C1.44993 44.7846 0.875977 44.2139 0.875977 43.5119V23.1517C0.875977 22.8141 1.01071 22.4899 1.25053 22.2515L21.7269 1.8886C22.2281 1.39025 23.0365 1.39025 23.5377 1.8886L29.032 7.35175C28.8972 -0.0351525 28.6359 1.73052 35.4317 1.51618C36.1377 1.51618 36.7116 2.08687 36.7116 2.78886V14.9878L44.0167 22.2515C44.2565 22.4899 44.3912 22.8141 44.3912 23.1517Z" fill="black"/>
<path d="M13.5894 16.4052L11.0205 22.4521L15.8857 24.4956L18.4546 18.4486L13.5894 16.4052Z" fill="white"/>
<path d="M23.1878 27.5613L25.7557 21.5141L20.8893 19.4697L18.3213 25.517C18.0384 26.1841 17.2623 26.4976 16.5914 26.2163C15.9204 25.9349 15.6051 25.1633 15.8881 24.4961L11.0216 22.4518C9.60155 25.7929 11.1752 29.6431 14.5354 31.0551C14.953 31.2293 15.3761 31.3579 15.8045 31.4436L15.7533 31.5642L13.1854 37.6115L18.0518 39.6558L20.6198 33.6085L23.1878 27.5613Z" fill="white"/>
<path d="M30.0729 26.6131L32.6408 20.5658L27.7744 18.5215L25.2064 24.5714L22.6357 30.6186L27.5022 32.663L30.0729 26.6131Z" fill="white"/>
<path d="M31.2883 27.1245C31.0835 27.0387 30.876 26.9637 30.6685 26.8994L28.5559 31.8696C28.7796 31.8428 29.0113 31.8696 29.2323 31.9607C29.9032 32.242 30.2185 33.0136 29.9356 33.6808C29.6526 34.3479 28.8766 34.6614 28.2056 34.3801C27.5347 34.0988 27.2194 33.3271 27.5023 32.66L22.6359 30.6156C21.2158 33.9568 22.7895 37.807 26.1496 39.219C29.5098 40.631 33.382 39.0662 34.802 35.7251C36.2221 32.384 34.6484 28.5338 31.2883 27.1218V27.1245Z" fill="white"/>
<path d="M12.7567 48.2547V49.5006C12.8914 49.4952 13.018 49.4791 13.1447 49.4523C13.2686 49.4282 13.3656 49.38 13.4357 49.3103C13.4707 49.2755 13.5704 49.2567 13.7402 49.2514C13.9073 49.246 14.0582 49.2514 14.1929 49.2675C14.3384 49.3023 14.4435 49.3559 14.5109 49.4309C14.5782 49.5059 14.6025 49.5836 14.5836 49.664C14.5728 49.739 14.5243 49.806 14.4408 49.8623C14.3573 49.9185 14.2414 49.948 14.0986 49.948H12.7594V50.4249C12.7594 50.9849 12.7001 51.3841 12.5815 51.6199C12.4629 51.8557 12.3336 51.9763 12.1935 51.9843C12.0884 51.9897 12.0049 51.912 11.9375 51.7512C11.8701 51.5904 11.8378 51.277 11.8378 50.8161V50.4705C11.5603 50.5696 11.2558 50.6634 10.9297 50.7572C10.6037 50.8483 10.2722 50.9367 9.94349 51.0171C9.61205 51.0974 9.29139 51.1671 8.98151 51.2207C8.67163 51.2743 8.39947 51.3118 8.16774 51.3279C7.91983 51.3466 7.7366 51.3118 7.62343 51.2287C7.51025 51.1457 7.45367 50.9742 7.45367 50.7143V49.3291C7.45367 49.2246 7.44289 49.1308 7.41864 49.0424C7.39438 48.9567 7.35666 48.8897 7.30546 48.8441C7.24079 48.7986 7.15187 48.7584 7.03061 48.7262C6.91205 48.6941 6.79349 48.67 6.67762 48.6539C6.6372 48.6539 6.60486 48.6325 6.586 48.5949C6.56444 48.5548 6.55905 48.5119 6.56444 48.4637C6.56444 48.4128 6.57792 48.3672 6.60756 48.3297C6.6372 48.2922 6.68301 48.2707 6.74768 48.2654C6.83929 48.2654 6.96325 48.2654 7.11414 48.2708C7.26504 48.2708 7.41864 48.2788 7.57492 48.2841C7.73121 48.2949 7.88211 48.3109 8.03031 48.327C8.17852 48.3458 8.29977 48.3618 8.39139 48.3806C8.4372 48.3967 8.46953 48.4369 8.48301 48.5012C8.49648 48.5655 8.49648 48.6244 8.47762 48.6834C8.45875 48.7637 8.44798 48.8629 8.44259 48.9781C8.4372 49.0933 8.4345 49.1951 8.4345 49.2809V50.3017C8.4345 50.4169 8.46684 50.4946 8.52881 50.5348C8.59349 50.575 8.67163 50.5937 8.76325 50.5884C8.92492 50.583 9.13241 50.5643 9.3857 50.5321C9.639 50.5 9.90307 50.4598 10.1833 50.4062C10.4662 50.3606 10.7546 50.3044 11.0402 50.2374C11.3285 50.1704 11.5926 50.1034 11.8378 50.0337V48.4074C11.8378 48.2815 11.8216 48.1716 11.7893 48.0778C11.757 47.9867 11.7058 47.9144 11.6384 47.8608C11.5468 47.7912 11.439 47.7349 11.315 47.692C11.1938 47.6491 11.0698 47.617 10.9405 47.5929C10.8947 47.5875 10.8623 47.5634 10.8435 47.5232C10.8273 47.483 10.8273 47.4402 10.8435 47.3919C10.8543 47.3517 10.8812 47.3116 10.9162 47.274C10.954 47.2365 11.0052 47.2178 11.0671 47.2178C11.1776 47.2178 11.307 47.2258 11.4552 47.2392C11.6034 47.2526 11.7543 47.2687 11.9132 47.2874C12.0695 47.3116 12.2204 47.3357 12.3686 47.3598C12.5168 47.3866 12.6462 47.4107 12.7567 47.4321C12.8025 47.4509 12.8348 47.4857 12.8537 47.5447C12.8698 47.6009 12.8698 47.6599 12.8537 47.7161C12.824 47.8019 12.8025 47.893 12.789 47.9841C12.7755 48.0752 12.7647 48.1663 12.7594 48.252L12.7567 48.2547ZM10.9028 53.6374C10.989 53.683 11.086 53.7339 11.1911 53.7848C11.2962 53.8357 11.3986 53.8866 11.5037 53.9402C11.6088 53.9911 11.7058 54.0393 11.7947 54.0795C11.8836 54.1197 11.9591 54.1492 12.0156 54.1653C12.0857 54.1894 12.145 54.2028 12.1935 54.2028C12.242 54.2055 12.2905 54.2081 12.3363 54.2081C12.3767 54.2135 12.4171 54.2215 12.4576 54.2296C12.498 54.2376 12.5492 54.2564 12.6138 54.2858C12.7135 54.3394 12.8267 54.4252 12.9534 54.5511C13.08 54.6743 13.1797 54.7788 13.2498 54.8673C13.3144 54.9664 13.3414 55.0548 13.336 55.1405C13.3306 55.2236 13.2983 55.2906 13.239 55.3361C13.1743 55.3817 13.0908 55.4004 12.983 55.3924C12.8752 55.3844 12.754 55.3308 12.6219 55.2316C12.5222 55.1727 12.3902 55.0923 12.2204 54.9878C12.0534 54.8833 11.8728 54.7708 11.6815 54.6502C11.4902 54.535 11.2989 54.4225 11.1076 54.3126C10.9162 54.2028 10.7519 54.1117 10.6117 54.0367C10.4501 54.1921 10.2695 54.3421 10.0728 54.4895C9.87612 54.6368 9.67133 54.7708 9.46384 54.8914C9.25097 55.0173 9.0354 55.1271 8.82522 55.2209C8.61235 55.3147 8.41025 55.3763 8.21893 55.4112C7.95756 55.4808 7.80935 55.4755 7.77432 55.3924C7.73929 55.312 7.79049 55.2424 7.93061 55.1834C8.14349 55.0843 8.36444 54.961 8.5881 54.811C8.81175 54.6609 9.02193 54.5002 9.21864 54.326C9.41534 54.1519 9.59049 53.9777 9.74139 53.7982C9.89229 53.6187 10.0082 53.4499 10.089 53.2891C10.0998 53.2704 10.0971 53.257 10.0809 53.2409C10.0647 53.2275 10.0378 53.2168 10.0028 53.2114C9.93271 53.2114 9.87073 53.2114 9.81145 53.2195C9.75217 53.2248 9.69828 53.2302 9.64708 53.2355C9.60127 53.2409 9.55816 53.2516 9.52043 53.2623C9.48271 53.2731 9.44768 53.2864 9.41265 53.2972C9.37762 53.3079 9.34259 53.3213 9.31295 53.3374C9.28061 53.3508 9.25097 53.3642 9.22133 53.3749C9.17013 53.3936 9.11355 53.4043 9.05696 53.4097C9.00037 53.4151 8.9357 53.4097 8.86564 53.3936C8.76594 53.3749 8.66085 53.3427 8.54768 53.2945C8.4345 53.2463 8.30516 53.1793 8.15965 53.0989C8.05456 53.0399 7.9872 52.9837 7.95486 52.9301C7.92253 52.8765 7.91714 52.8283 7.94139 52.7881C7.96564 52.7479 8.00606 52.7158 8.06804 52.697C8.12732 52.6782 8.20007 52.6729 8.28091 52.6836C8.42642 52.7024 8.59079 52.7131 8.77941 52.7211C8.96804 52.7292 9.18361 52.7318 9.42882 52.7265C9.50426 52.7265 9.60396 52.7265 9.72792 52.7318C9.85187 52.7345 9.98929 52.7372 10.1321 52.7372C10.2749 52.7372 10.4285 52.7372 10.5848 52.7318C10.7411 52.7318 10.892 52.7238 11.0375 52.7104C11.1534 52.6997 11.2612 52.6836 11.3635 52.6622C11.4659 52.6434 11.5495 52.622 11.6195 52.5979C11.6546 52.5791 11.695 52.5604 11.7462 52.5362C11.7947 52.5121 11.8432 52.4987 11.889 52.4934C12.0695 52.4746 12.2528 52.4746 12.436 52.4934C12.6219 52.5094 12.7486 52.5309 12.8186 52.5523C12.9183 52.5979 12.9857 52.6541 13.0288 52.7211C13.0692 52.7881 13.0827 52.8524 13.0719 52.9167C13.0612 52.981 13.0234 53.0346 12.9641 53.0801C12.9022 53.1257 12.824 53.1498 12.7243 53.1498H11.951C11.8109 53.1498 11.6707 53.1498 11.5252 53.1552C11.3797 53.1578 11.2342 53.1605 11.0914 53.1605C11.121 53.1846 11.1372 53.2141 11.1399 53.2463C11.1426 53.2811 11.1345 53.3159 11.1183 53.3508C11.0995 53.3802 11.0833 53.4043 11.0698 53.4285C11.0564 53.4526 11.0402 53.474 11.0213 53.4981C11.0052 53.5276 10.9836 53.5517 10.9647 53.5758C10.9432 53.5999 10.9216 53.6187 10.9001 53.6348L10.9028 53.6374ZM11.2585 52.2362C11.0671 52.2522 10.8704 52.2629 10.6656 52.2656C10.4635 52.2683 10.2911 52.2603 10.1537 52.2442C10.062 52.2442 9.95157 52.2067 9.82223 52.1317C9.69558 52.0566 9.55546 51.9495 9.40456 51.8101C9.28331 51.7056 9.25097 51.6199 9.31025 51.5502C9.36684 51.4806 9.49349 51.4672 9.6848 51.5074C9.93001 51.561 10.1725 51.5904 10.415 51.6038C10.6603 51.6146 10.927 51.6226 11.2153 51.6226C11.3609 51.6279 11.4686 51.6601 11.5414 51.7217C11.6141 51.7833 11.6546 51.8477 11.66 51.9173C11.66 51.9923 11.6249 52.062 11.5603 52.129C11.4929 52.196 11.3932 52.2308 11.2612 52.2362H11.2585Z" fill="black"/>
<path d="M17.596 50.1404C17.6607 50.186 17.7254 50.2369 17.7928 50.2905C17.8601 50.344 17.9248 50.395 17.9895 50.4405C18.0487 50.4914 18.1053 50.5396 18.1592 50.5798C18.2131 50.62 18.2589 50.6495 18.294 50.6656C18.3398 50.6843 18.3829 50.6977 18.4206 50.7084C18.4583 50.7191 18.4934 50.7299 18.5284 50.7352C18.5688 50.754 18.6092 50.7727 18.6496 50.7969C18.6901 50.821 18.7305 50.8478 18.7709 50.8826C18.8706 50.9871 18.9703 51.113 19.0754 51.2631C19.1805 51.4131 19.2559 51.539 19.3017 51.6435C19.3314 51.7293 19.3422 51.815 19.3314 51.8981C19.3233 51.9811 19.2937 52.0454 19.2478 52.0936C19.2074 52.1392 19.1481 52.1579 19.0727 52.1446C18.9972 52.1338 18.9137 52.0722 18.8221 51.9624C18.7359 51.8927 18.6308 51.8043 18.5122 51.6944C18.3937 51.5846 18.2643 51.464 18.1242 51.33C17.9841 51.2041 17.844 51.0755 17.7038 50.9442C17.561 50.8129 17.429 50.6977 17.3077 50.5932C17.041 50.8879 16.7499 51.1666 16.4374 51.4292C16.1248 51.6917 15.7772 51.9409 15.3919 52.1767C15.276 52.2624 15.1763 52.3107 15.0954 52.3187C15.0146 52.3267 14.9526 52.3134 14.9122 52.2812C14.8718 52.2517 14.8529 52.2089 14.8583 52.1472C14.8637 52.0883 14.8987 52.0293 14.9634 51.9704C15.5023 51.5256 15.955 51.0567 16.3215 50.5611C16.688 50.0654 16.9736 49.5402 17.1811 48.9856C17.2215 48.8811 17.2296 48.774 17.2026 48.6641C17.1757 48.5543 17.0679 48.4632 16.8766 48.3881C16.7257 48.3185 16.661 48.2327 16.6853 48.1282C16.7068 48.0237 16.8038 47.9809 16.9736 47.997C17.1407 48.0157 17.3401 48.0452 17.5637 48.0934C17.7874 48.1416 18.0083 48.2167 18.2158 48.3265C18.3425 48.3962 18.399 48.4873 18.3802 48.5998C18.3613 48.7123 18.3263 48.8275 18.267 48.9508C18.1646 49.1705 18.0541 49.3795 17.941 49.5778C17.8278 49.776 17.7119 49.9636 17.588 50.1351L17.596 50.1404ZM18.6308 53.5673V54.3443C18.6308 54.4488 18.6658 54.5211 18.7359 54.5613C18.8059 54.6015 18.8787 54.6229 18.9541 54.6229L20.1128 54.6042C20.2125 54.6042 20.3176 54.5988 20.4362 54.5881C20.552 54.5774 20.6625 54.5345 20.7676 54.4675C20.7865 54.4488 20.8134 54.4354 20.8511 54.4247C20.8889 54.4139 20.9239 54.4032 20.9589 54.4005C21.0856 54.3898 21.2365 54.3845 21.4089 54.3872C21.5787 54.3898 21.7161 54.3979 21.8131 54.4086C21.9532 54.4327 22.0529 54.4782 22.1122 54.5479C22.1742 54.6176 22.2038 54.6872 22.2038 54.7542C22.1984 54.84 22.1553 54.915 22.0718 54.9793C21.991 55.0436 21.8805 55.0731 21.7404 55.0731L18.5284 55.1079C18.4233 55.1079 18.3209 55.0999 18.2158 55.0865C18.1107 55.0731 18.0191 55.0382 17.9383 54.9873C17.852 54.9418 17.782 54.8775 17.7335 54.7971C17.685 54.7167 17.6607 54.6095 17.6607 54.4756V53.645C17.6607 53.5753 17.6499 53.5056 17.6311 53.4333C17.6095 53.361 17.5745 53.3074 17.5233 53.2726C17.4478 53.2324 17.3616 53.2002 17.2646 53.1734C17.1703 53.1466 17.0598 53.1252 16.9386 53.1091C16.8981 53.1038 16.8712 53.0823 16.855 53.0448C16.8416 53.0073 16.8362 52.9698 16.8416 52.9269C16.8523 52.8814 16.8739 52.8412 16.9062 52.8063C16.9386 52.7715 16.9817 52.7501 17.041 52.7367C17.1056 52.7313 17.208 52.7286 17.3508 52.7286C17.4937 52.7286 17.6446 52.7313 17.8062 52.7367C17.9679 52.742 18.1215 52.7501 18.267 52.7608C18.4125 52.7715 18.523 52.7876 18.5984 52.8037C18.6335 52.8224 18.6604 52.8573 18.682 52.9082C18.7008 52.9617 18.7035 53.0127 18.6874 53.0636C18.6631 53.1332 18.6496 53.2163 18.6443 53.3154C18.6389 53.4146 18.6362 53.4976 18.6362 53.5673H18.6308ZM20.6059 50.1565C20.5197 50.1565 20.4469 50.1565 20.3931 50.1619C20.3392 50.1645 20.2772 50.1672 20.2152 50.1672C20.1101 50.1726 19.9969 50.1913 19.8757 50.2235C19.7544 50.2556 19.6574 50.2851 19.5874 50.3146C19.5335 50.3387 19.4796 50.3548 19.423 50.3628C19.3664 50.3708 19.291 50.3628 19.2047 50.3333C19.1347 50.3146 19.0404 50.2717 18.9218 50.202C18.8032 50.1324 18.6847 50.0493 18.5688 49.9502C18.4637 49.8644 18.426 49.7894 18.4502 49.7251C18.4772 49.6608 18.558 49.6367 18.6981 49.6474C18.7844 49.6581 18.9326 49.6689 19.1428 49.6742C19.3529 49.6796 19.5523 49.6822 19.7437 49.6822H20.1963C20.2664 49.6822 20.3338 49.6823 20.4011 49.6769C20.4685 49.6742 20.5359 49.6689 20.6059 49.6635V48.4015C20.6059 48.2756 20.5898 48.1658 20.5574 48.072C20.5251 47.9809 20.4739 47.9085 20.4065 47.855C20.3149 47.7853 20.2071 47.729 20.0832 47.6862C19.9619 47.6433 19.838 47.6111 19.7086 47.587C19.6628 47.5817 19.6305 47.5575 19.6116 47.5174C19.5954 47.4772 19.5954 47.4343 19.6116 47.3861C19.6224 47.3459 19.6493 47.3057 19.6844 47.2682C19.7221 47.2307 19.7733 47.2119 19.838 47.2119C19.9484 47.2119 20.0778 47.2199 20.226 47.2333C20.3742 47.2467 20.5278 47.2628 20.6841 47.2816C20.8404 47.3057 20.9913 47.3298 21.1395 47.3539C21.2877 47.3807 21.417 47.4048 21.5275 47.4263C21.5733 47.445 21.6056 47.4798 21.6245 47.5388C21.6407 47.5951 21.6407 47.654 21.6245 47.7103C21.5949 47.796 21.5733 47.8871 21.5598 47.9782C21.5463 48.0693 21.5383 48.1604 21.5383 48.2461V51.8981C21.5383 52.4821 21.479 52.9162 21.355 53.2002C21.2338 53.4869 21.1017 53.6316 20.9643 53.6369C20.8484 53.6477 20.7595 53.5512 20.6975 53.3422C20.6383 53.1332 20.6059 52.7929 20.6059 52.3214V50.1485V50.1565Z" fill="black"/>
<path d="M29.7432 48.2469V53.4475C29.7486 54.1173 29.7055 54.6291 29.6112 54.9828C29.5196 55.3364 29.3875 55.5186 29.2205 55.524C29.0992 55.5347 29.0076 55.4061 28.9456 55.1355C28.8836 54.8649 28.854 54.4549 28.854 53.9057V51.154L27.9756 51.1701V53.1528C27.9756 53.8226 27.9298 54.3317 27.8408 54.6854C27.7519 55.0363 27.6226 55.2185 27.4528 55.2293C27.3315 55.2346 27.2399 55.0926 27.1833 54.8006C27.1241 54.5085 27.0971 54.0959 27.0971 53.5574V52.2418C26.6956 52.3972 26.2645 52.5473 25.7956 52.6919C25.3295 52.8366 24.8956 52.925 24.4941 52.9599C24.2678 52.984 24.1061 52.9492 24.0064 52.8554C23.9067 52.7643 23.8582 52.5874 23.8582 52.3275V49.7929C23.8582 49.6268 23.8097 49.5062 23.7154 49.4392C23.6184 49.3696 23.4675 49.324 23.2573 49.2999C23.2061 49.2945 23.1684 49.2731 23.1495 49.2356C23.128 49.1981 23.1253 49.1579 23.136 49.1097C23.1414 49.0641 23.163 49.0213 23.2007 48.9837C23.2384 48.9462 23.2896 48.9248 23.3516 48.9194C23.5375 48.9087 23.7612 48.9087 24.0226 48.9248C24.2839 48.9382 24.5265 48.965 24.7555 48.9971C24.7959 49.0025 24.8444 49.0079 24.9037 49.0105C24.9603 49.0132 25.0196 49.0105 25.0762 49.0052C25.1408 48.9998 25.2028 48.9918 25.2648 48.9784C25.3241 48.9677 25.3833 48.9462 25.4345 48.9194C25.4696 48.9007 25.5073 48.8819 25.5477 48.8578C25.5881 48.8337 25.6286 48.8176 25.669 48.8069C25.7848 48.7882 25.9061 48.7801 26.0301 48.7801C26.154 48.7801 26.278 48.7882 26.3992 48.8069C26.4908 48.823 26.5636 48.8659 26.6175 48.9355C26.6687 49.0052 26.6956 49.0775 26.6956 49.1525C26.6956 49.2276 26.666 49.2972 26.6094 49.3615C26.5501 49.4258 26.4612 49.458 26.3399 49.458C26.2483 49.4633 26.1271 49.4687 25.9842 49.4714C25.8387 49.4714 25.6932 49.4794 25.5396 49.4848C25.3887 49.4901 25.2459 49.4928 25.1085 49.4928H24.8013V51.9069C24.8013 52.0275 24.831 52.1052 24.8875 52.1373C24.9441 52.1695 25.0142 52.1829 25.0977 52.1748C25.3402 52.1641 25.6474 52.1186 26.0166 52.0409C26.3857 51.9632 26.7468 51.8694 27.0998 51.7595V48.8257C27.0998 48.6997 27.0863 48.5872 27.0567 48.4934C27.0271 48.397 26.9786 48.3246 26.9085 48.2737C26.8384 48.2201 26.7522 48.1773 26.6525 48.1398C26.5501 48.1022 26.445 48.0728 26.3345 48.0487C26.2833 48.0379 26.2483 48.0112 26.2348 47.971C26.2214 47.9308 26.2187 47.8906 26.2295 47.8504C26.2402 47.8048 26.2672 47.7647 26.3022 47.7298C26.3399 47.695 26.3911 47.6762 26.4531 47.6762C26.6741 47.6762 26.922 47.695 27.1968 47.7325C27.4717 47.77 27.7169 47.8156 27.9324 47.8665C27.9783 47.8852 28.0133 47.9201 28.0321 47.9736C28.0537 48.0272 28.0537 48.0862 28.0375 48.1424C28.0133 48.2282 27.9998 48.3166 27.989 48.4023C27.981 48.4881 27.9756 48.5765 27.9756 48.6622V50.6262L28.854 50.6074V48.4023C28.854 48.2764 28.8405 48.1639 28.8136 48.0701C28.7866 47.9736 28.7381 47.9013 28.6708 47.8504C28.5953 47.7941 28.5037 47.7459 28.3959 47.7084C28.2881 47.6709 28.1669 47.6414 28.0348 47.6173C27.989 47.6119 27.9567 47.5878 27.9432 47.5476C27.9271 47.5074 27.9298 47.4646 27.9486 47.4163C27.9594 47.3762 27.9836 47.336 28.0214 47.2985C28.0591 47.2609 28.1103 47.2422 28.1723 47.2422C28.3932 47.2422 28.6519 47.2609 28.951 47.2985C29.2501 47.336 29.5061 47.3815 29.7217 47.4324C29.7675 47.4512 29.7998 47.486 29.816 47.5449C29.8348 47.6012 29.8348 47.6602 29.816 47.7164C29.7917 47.8022 29.7756 47.8906 29.7594 47.9817C29.7459 48.0701 29.7378 48.1585 29.7378 48.2443L29.7432 48.2469Z" fill="black"/>
<path d="M35.6254 49.2942H34.4506C34.3159 49.2996 34.1703 49.3023 34.006 49.3023C33.8416 49.3023 33.6826 49.3049 33.5183 49.3103C33.362 49.3157 33.2111 49.321 33.0683 49.3291C32.9254 49.3371 32.8096 49.3425 32.7153 49.3559C32.6748 49.3612 32.6344 49.3692 32.5967 49.38C32.559 49.3907 32.5239 49.4041 32.4889 49.4148C32.4539 49.4255 32.4215 49.4389 32.3892 49.4523C32.3569 49.4684 32.3299 49.4791 32.3057 49.4925C32.2545 49.5086 32.1979 49.522 32.1359 49.5273C32.0739 49.5327 32.0093 49.5273 31.9392 49.5112C31.853 49.5005 31.7317 49.4603 31.5781 49.3934C31.4245 49.3264 31.2817 49.2514 31.147 49.1629C30.9745 49.0477 30.9099 48.9513 30.9557 48.8682C31.0015 48.7878 31.1039 48.7557 31.2602 48.7744C31.4003 48.7905 31.562 48.8066 31.7479 48.8227C31.9338 48.8361 32.1305 48.8441 32.338 48.8441C32.4081 48.8441 32.5159 48.8441 32.6614 48.8495C32.8069 48.8495 32.9632 48.8548 33.1302 48.8548C33.2973 48.8548 33.4536 48.8548 33.618 48.8495C33.7823 48.8468 33.9171 48.8387 34.0275 48.828C34.1272 48.8227 34.2215 48.8119 34.3105 48.7986C34.3994 48.7852 34.4721 48.7664 34.5233 48.7423C34.5584 48.7235 34.5961 48.7048 34.6419 48.6807C34.685 48.6565 34.7254 48.6431 34.7605 48.6378C34.9275 48.619 35.1135 48.619 35.3183 48.6378C35.5203 48.6539 35.6524 48.6753 35.709 48.6967C35.8006 48.7423 35.868 48.7986 35.9057 48.8655C35.9434 48.9325 35.9569 48.9968 35.9461 49.0611C35.9353 49.1254 35.9003 49.179 35.841 49.2246C35.7817 49.2701 35.709 49.2942 35.6227 49.2942H35.6254ZM33.5641 49.5622C33.8254 49.5622 34.0626 49.5997 34.2781 49.6747C34.4937 49.7497 34.6796 49.8462 34.8359 49.9694C34.9868 50.0953 35.1054 50.2427 35.1916 50.4115C35.2778 50.5776 35.3209 50.7571 35.3209 50.9474C35.3209 51.1376 35.2778 51.3171 35.1916 51.4832C35.1054 51.6494 34.9841 51.794 34.8359 51.9146C34.6796 52.0405 34.4937 52.1397 34.2781 52.2093C34.0653 52.279 33.8254 52.3138 33.5641 52.3138C33.3027 52.3138 33.0656 52.279 32.8554 52.2093C32.6452 52.1397 32.4593 52.0432 32.303 51.9146C32.1521 51.794 32.0362 51.6494 31.9554 51.4832C31.8745 51.3171 31.8341 51.1376 31.8341 50.9474C31.8341 50.7571 31.8745 50.5776 31.9554 50.4115C32.0362 50.2454 32.1521 50.098 32.303 49.9694C32.4593 49.8488 32.6425 49.7497 32.8554 49.6747C33.0683 49.5997 33.3054 49.5622 33.5641 49.5622ZM37.2018 54.0875C37.2018 54.5028 37.1398 54.8324 37.0186 55.0735C36.8973 55.3174 36.7653 55.4406 36.6278 55.446C36.5174 55.4567 36.4257 55.3683 36.353 55.178C36.2802 54.9878 36.2452 54.7333 36.2452 54.4171V53.1792C35.9326 53.1846 35.5823 53.1953 35.197 53.2141C34.8117 53.2302 34.4694 53.2543 34.1757 53.2837C34.1218 53.2891 34.076 53.2971 34.0329 53.3079C33.9898 53.3186 33.9467 53.332 33.9063 53.3427C33.8712 53.3534 33.8362 53.3695 33.7985 53.3856C33.7608 53.4016 33.7257 53.4177 33.6907 53.4284C33.626 53.4445 33.5587 53.4606 33.4859 53.4713C33.4132 53.482 33.3269 53.4713 33.2272 53.4365C33.1248 53.4124 33.0063 53.3722 32.8742 53.3105C32.7422 53.2516 32.594 53.1659 32.4242 53.056C32.2572 52.9542 32.1952 52.8524 32.2383 52.7586C32.2814 52.6621 32.4108 52.6353 32.6263 52.6755C32.7368 52.6916 32.8904 52.7077 33.0925 52.7238C33.2919 52.7372 33.4967 52.7452 33.7069 52.7452H34.976C35.1781 52.7398 35.3721 52.7318 35.5554 52.7184C35.7386 52.7077 35.8976 52.6863 36.0377 52.6568C36.0539 52.6568 36.0754 52.6514 36.0943 52.6407C36.1132 52.63 36.1347 52.6193 36.159 52.6139C36.1832 52.6032 36.2048 52.5925 36.229 52.5844C36.2533 52.5764 36.2775 52.571 36.3072 52.571C36.3718 52.571 36.4365 52.571 36.5039 52.5657C36.5712 52.563 36.6386 52.5603 36.7087 52.5603H36.8865C36.9404 52.5603 36.9916 52.5603 37.0401 52.5684C37.156 52.5978 37.2287 52.6461 37.2584 52.7104C37.288 52.7773 37.2934 52.847 37.2745 52.922C37.2584 52.9783 37.2422 53.0399 37.226 53.1042C37.2126 53.1685 37.2045 53.2302 37.2045 53.2945V54.0822L37.2018 54.0875ZM34.2 48.3859C33.9979 48.402 33.8147 48.4127 33.6476 48.4127C33.4805 48.4127 33.3269 48.4074 33.1814 48.394C33.0817 48.394 32.9685 48.3538 32.8419 48.2734C32.7153 48.193 32.5724 48.0751 32.4162 47.9197C32.2949 47.8099 32.2626 47.7215 32.3192 47.6518C32.3784 47.5821 32.5024 47.5768 32.6937 47.6357C32.92 47.7 33.1437 47.7402 33.3674 47.7616C33.591 47.7831 33.847 47.7911 34.138 47.7911C34.2889 47.7911 34.4021 47.8206 34.4802 47.8822C34.5584 47.9412 34.6015 48.0081 34.6069 48.0778C34.6069 48.1528 34.5718 48.2225 34.5072 48.2868C34.4398 48.3511 34.3374 48.3859 34.1973 48.3913L34.2 48.3859ZM33.5641 51.7244C33.8416 51.7244 34.0518 51.644 34.1892 51.4832C34.3293 51.3225 34.3994 51.1296 34.3994 50.9125C34.3994 50.6955 34.3293 50.4919 34.1865 50.3284C34.0437 50.165 33.8362 50.0819 33.5641 50.0819C33.3081 50.0819 33.106 50.1596 32.9578 50.315C32.8096 50.4704 32.7368 50.6687 32.7368 50.9125C32.7368 51.1322 32.8096 51.3225 32.9578 51.4832C33.106 51.644 33.3081 51.7244 33.5641 51.7244ZM37.2799 48.2546V50.366C37.4012 50.3606 37.5278 50.3445 37.6599 50.3231C37.7892 50.299 37.8916 50.2534 37.9671 50.1838C38.0021 50.1436 38.1018 50.1195 38.2635 50.1141C38.4251 50.1087 38.576 50.1141 38.7162 50.1302C38.8617 50.165 38.9641 50.2186 39.0287 50.2936C39.0934 50.3686 39.115 50.4463 39.0988 50.5267C39.088 50.6017 39.0395 50.6687 38.956 50.725C38.8724 50.7813 38.7539 50.8107 38.603 50.8107H37.2799C37.2799 51.3761 37.2206 51.7753 37.0967 52.0057C36.9754 52.2361 36.8515 52.3513 36.7221 52.3513C36.6063 52.3621 36.5147 52.287 36.4473 52.1236C36.3799 51.9602 36.3449 51.644 36.3395 51.1751V48.3967C36.3395 48.2707 36.3233 48.1609 36.291 48.0671C36.2587 47.976 36.2075 47.9037 36.1401 47.8501C36.0485 47.7804 35.9407 47.7241 35.8168 47.6813C35.6955 47.6384 35.5715 47.6062 35.4422 47.5821C35.3964 47.5768 35.3641 47.5527 35.3506 47.5125C35.3371 47.4723 35.3344 47.4294 35.3452 47.3812C35.356 47.341 35.3829 47.3008 35.4233 47.2633C35.4638 47.2258 35.515 47.207 35.5796 47.207C35.6901 47.207 35.8194 47.2151 35.9677 47.2285C36.1159 47.2419 36.2668 47.2579 36.4257 47.2767C36.582 47.3008 36.7329 47.3249 36.8784 47.349C37.0239 47.3758 37.1506 47.3999 37.2611 47.4214C37.3123 47.4401 37.3473 47.475 37.3662 47.5339C37.3823 47.5902 37.3823 47.6491 37.3662 47.7054C37.3311 47.7911 37.3069 47.8822 37.2961 47.9733C37.2853 48.0644 37.2772 48.1555 37.2772 48.2413L37.2799 48.2546Z" fill="black"/>
</svg>
