<svg width="42" height="57" viewBox="0 0 42 57" fill="none" xmlns="http://www.w3.org/2000/svg">
<path d="M8.49737 8.5065L6.85079 7.52228L6.91103 7.44193C6.95119 7.38168 6.98131 7.31137 6.98131 7.22098C6.98131 7.15068 6.95119 7.10047 6.87087 7.05025C6.80059 7.00004 6.69015 6.93978 6.57971 6.88956C7.43312 6.87952 8.3066 6.85943 8.53753 6.85943C8.76845 6.85943 9.25037 6.86948 9.44113 6.89961C9.53149 6.84939 9.64193 6.69874 9.64193 6.52801C9.64193 6.46775 9.60177 6.41754 9.55157 6.39745C9.35077 6.34724 8.91905 6.29702 8.63793 6.28698L8.32668 6.43762C7.82468 6.46775 4.6219 6.52801 4.17009 6.51797C3.94921 6.51797 3.54761 6.48784 3.25645 6.43762L3.19621 6.55814C3.18616 6.57823 3.18616 6.6184 3.22633 6.64853C3.42713 6.81926 3.74841 7.00004 4.01949 7.10047C4.20021 7.03017 4.5717 6.95987 4.7725 6.93978C4.9231 6.92974 5.40502 6.91969 5.97731 6.90965C6.04759 6.95987 6.10783 7.02012 6.15803 7.08038C6.21827 7.15068 6.22831 7.2009 6.16807 7.28124C5.6259 8.05456 4.51146 8.81784 3.12592 9.42042C3.07572 9.45055 3.06568 9.47064 3.0958 9.51081L3.18617 9.62129C3.20625 9.64137 3.21629 9.65141 3.27653 9.63133C4.7223 9.20952 5.85683 8.61698 6.57971 7.84366L9.14997 9.52085C9.23029 9.58111 9.34073 9.63133 9.40097 9.63133C9.51141 9.64137 9.66201 9.5309 9.69213 9.39029C9.70218 9.33004 9.66201 9.24969 9.58169 9.14926C9.45117 8.99861 9.18009 8.75758 8.96925 8.59689L8.49737 8.5065ZM4.90302 5.20232C4.90302 5.22241 4.89298 5.2425 4.9231 5.28267C5.08374 5.48353 5.3247 5.69444 5.5255 5.80491C5.58574 5.83504 5.61586 5.83504 5.69618 5.83504C6.16807 5.79487 6.99135 5.78482 7.5536 5.77478C7.61384 5.77478 7.66404 5.76474 7.68412 5.71452C7.73432 5.64422 7.74436 5.47349 7.71424 5.3831C7.69416 5.32284 7.654 5.29271 7.57368 5.29271C6.84075 5.29271 5.89699 5.26258 4.9733 5.10189L4.90302 5.20232ZM9.77245 3.13345L9.05961 3.16357V0.984223L9.08973 0.461982C9.08973 0.361552 9.04957 0.29125 8.96925 0.261121C8.67809 0.140603 8.0556 0.010043 7.69416 0C7.61384 0 7.59376 0.0200866 7.57368 0.0502155L7.5034 0.291249C7.8548 0.411767 8.17608 0.592543 8.34676 0.803447V3.47491C6.99135 3.85655 4.91306 4.12771 3.68817 4.1478C3.55765 4.15784 3.50745 4.10763 3.50745 3.97707V1.82784L3.52753 1.34577C3.52753 1.2353 3.47733 1.17504 3.37693 1.15496C3.12592 1.10474 2.56368 1.06457 2.2424 1.06457C2.18216 1.06457 2.142 1.08465 2.13196 1.12483L2.0918 1.36586C2.3428 1.43616 2.62392 1.55668 2.78456 1.6772V3.81638C2.78456 4.01724 2.7946 4.18797 2.82472 4.27836C2.93516 4.57965 3.146 4.77047 3.47733 4.77047C3.57773 4.77047 3.68817 4.77047 3.80865 4.76043C5.08374 4.66 6.94115 4.33862 8.34676 3.87663V4.02728C8.34676 4.38883 8.3568 5.07176 8.407 5.39314H8.82869C8.96925 5.03159 9.05961 4.38883 9.05961 3.79629V3.59543L10.8066 3.5653C10.8769 3.5653 10.9572 3.55526 10.9973 3.51508C11.0676 3.47491 11.1279 3.33431 11.1178 3.15353C11.1178 3.08323 11.0576 3.01293 10.9773 2.99284C10.7965 2.95267 10.3849 2.93258 10.0937 2.94263L9.77245 3.13345Z" fill="#1C1C1C"/>
<path d="M18.626 5.46344C18.626 5.92543 18.6461 6.79918 18.6862 7.2009H19.1079C19.2485 6.69874 19.3489 5.91538 19.3489 5.21237V0.984223L19.369 0.461982C19.369 0.361552 19.3388 0.29125 19.2485 0.261121C18.9674 0.140603 18.3348 0.010043 17.9734 0C17.8931 0 17.873 0.0200866 17.863 0.0502155L17.7826 0.291249C18.134 0.411767 18.4553 0.592543 18.626 0.803447V3.02297C18.134 3.0531 17.4513 3.06314 17.1401 3.06314C16.879 3.06314 16.5678 3.04306 16.3168 3.01293L16.2666 3.11336C16.2465 3.16357 16.2666 3.18366 16.2967 3.22383C16.4975 3.38452 16.7485 3.55526 17.0296 3.67577C17.2204 3.58538 17.4915 3.52513 17.6722 3.50504C17.863 3.48495 18.2846 3.46487 18.626 3.45483V5.46344ZM16.4975 5.62413C16.5577 5.70448 16.6581 5.78482 16.7184 5.79487C16.8389 5.83504 17.0095 5.76474 17.0597 5.63418C17.0798 5.57392 17.0597 5.48353 16.9995 5.35297C16.9091 5.17219 16.6883 4.85082 16.5176 4.62987L16.0959 4.46918L14.7204 3.21379C15.0417 2.71164 15.2726 2.20948 15.4132 1.70733C15.4232 1.65711 15.4333 1.57677 15.4333 1.49642C15.4333 1.41608 15.3931 1.34577 15.3128 1.3056C15.112 1.17504 14.5698 0.964137 14.2284 0.903879C14.1682 0.893835 14.1381 0.903879 14.118 0.934008L13.9975 1.14491C14.2485 1.28552 14.4794 1.50646 14.5698 1.69728C14.1983 3.02297 13.1542 4.55957 11.7586 5.76474C11.7184 5.79487 11.7184 5.825 11.7385 5.85512L11.8489 5.9656C11.8791 5.98568 11.9092 5.98568 11.9594 5.9656C12.9935 5.29271 13.8369 4.46918 14.4594 3.61551L16.4975 5.62413ZM18.6561 8.82788C18.0537 8.85801 16.2164 8.86805 15.5638 8.85801C15.3831 8.85801 15.3128 8.77767 15.3128 8.59689V7.10047L15.3228 6.64853C15.3228 6.53805 15.2726 6.4778 15.1823 6.45771C14.9313 6.40749 14.359 6.36732 14.0276 6.36732C13.9674 6.36732 13.9272 6.38741 13.9172 6.42758L13.867 6.64853C14.1381 6.70879 14.4192 6.81926 14.5798 6.93978V8.5065C14.5798 9.06892 14.8007 9.28986 15.4634 9.29991L19.8107 9.26978C19.871 9.26978 19.9111 9.25973 19.9412 9.21956C19.9914 9.17939 20.0517 9.04883 20.0517 8.86805C20.0517 8.78771 20.0015 8.73749 19.9212 8.72745C19.7304 8.68728 19.2786 8.64711 18.9774 8.65715L18.6561 8.82788Z" fill="#1C1C1C"/>
<path d="M27.9113 0.291249C28.2325 0.401724 28.5337 0.572456 28.6944 0.773318V3.97707L27.3691 4.00719V1.56672L27.3892 1.13487C27.3892 1.03444 27.3591 0.97418 27.2787 0.944051C27.0378 0.833577 26.4856 0.723103 26.1743 0.703017C26.094 0.703017 26.0639 0.733146 26.0539 0.763276L25.9735 0.994267C26.2647 1.0947 26.5458 1.25539 26.6864 1.43616V5.64422C25.6422 5.92543 24.0559 6.11624 23.1021 6.13633C22.9715 6.13633 22.9213 6.07607 22.9213 5.95555V2.56099L25.2205 2.46056C25.2707 2.46056 25.331 2.44047 25.351 2.42039C25.4012 2.36013 25.4514 2.22957 25.4514 2.06888C25.4514 1.99858 25.4113 1.94836 25.331 1.93832C25.1603 1.89814 24.7988 1.87806 24.588 1.87806L24.347 2.02871C24.1362 2.05883 23.3832 2.09901 22.9414 2.11909C22.6703 2.07892 22.0177 2.04879 21.7366 2.04879C21.6663 2.04879 21.6362 2.06888 21.6262 2.09901L21.576 2.33C21.8169 2.38021 22.0579 2.48064 22.2085 2.6112V5.80491C22.2085 5.99573 22.2185 6.16646 22.2487 6.25685C22.3491 6.55814 22.5699 6.74896 22.8912 6.74896C22.9916 6.74896 23.1121 6.74896 23.2326 6.73892C24.2165 6.66862 25.6221 6.41754 26.6864 6.04594V7.23103C26.6864 7.65284 26.7065 8.52659 26.7466 8.92831H27.1382C27.2787 8.40607 27.3691 7.53232 27.3691 6.97995V4.46918L28.6944 4.43905V7.89387C28.6944 8.32573 28.7145 9.25973 28.7546 9.65141H29.1562C29.3068 9.10909 29.3972 8.20521 29.3972 7.65284V0.934008L29.4173 0.441896C29.4273 0.351508 29.3972 0.281207 29.2968 0.251077C29.0458 0.13056 28.4434 0.010043 28.102 0C28.0317 0 28.0016 0.0200864 27.9815 0.0602583L27.9113 0.291249Z" fill="#1C1C1C"/>
<path d="M38.8632 3.495L38.1503 3.52513V0.984223L38.1805 0.461982C38.1805 0.361552 38.1503 0.29125 38.06 0.261121C37.7688 0.140603 37.1463 0.010043 36.7849 0C36.7046 0 36.6845 0.0200866 36.6744 0.0502155L36.5941 0.291249C36.9455 0.411767 37.2668 0.592543 37.4375 0.803447V4.75038C37.4375 5.14206 37.4576 5.85512 37.4977 6.18655H37.9194C38.07 5.79487 38.1503 5.14206 38.1503 4.52944V3.95698L39.8973 3.92685C39.9676 3.92685 40.0479 3.91681 40.0881 3.87663C40.1584 3.83646 40.2186 3.69586 40.2086 3.51508C40.2086 3.44478 40.1483 3.37448 40.068 3.35439C39.8873 3.31422 39.4756 3.29413 39.1845 3.30418L38.8632 3.495ZM37.4375 6.57823C36.7648 6.62844 33.9335 6.67866 33.4616 6.67866C33.1805 6.67866 32.7789 6.64853 32.4777 6.58827L32.4074 6.72887C32.3974 6.759 32.4074 6.79918 32.4476 6.81926C32.6785 7.00004 32.9998 7.18081 33.311 7.29129C33.5419 7.2009 33.9737 7.1306 34.2046 7.12055C34.6162 7.09043 36.6544 7.05025 37.4174 7.0603V8.44624C37.4174 8.80779 37.4375 9.42042 37.4777 9.76189H37.9194C38.0399 9.37021 38.1202 8.69732 38.1202 8.27551L38.1403 7.11051L38.2608 6.80922C38.2809 6.759 38.2809 6.71883 38.2507 6.67866C38.1704 6.62844 37.9696 6.50793 37.8692 6.44767C37.819 6.42758 37.7588 6.42758 37.7086 6.44767L37.4375 6.57823ZM35.9315 4.36875C35.9315 3.40461 35.0279 2.82211 33.8833 2.82211C32.7187 2.82211 31.8151 3.40461 31.8151 4.36875C31.8151 5.3128 32.7187 5.91538 33.8833 5.91538C35.0279 5.91538 35.9315 5.3128 35.9315 4.36875ZM32.5279 4.36875C32.5279 3.65569 33.1303 3.26401 33.8833 3.26401C34.6363 3.26401 35.2287 3.65569 35.2287 4.36875C35.2287 5.08181 34.6363 5.46344 33.8833 5.46344C33.1303 5.46344 32.5279 5.08181 32.5279 4.36875ZM35.4094 1.96845C34.9476 1.99858 32.1665 2.03875 31.7448 2.02871C31.5138 2.02871 31.1122 2.00862 30.8311 1.9584L30.7709 2.07892C30.7608 2.09901 30.7608 2.13918 30.801 2.16931C31.0018 2.33 31.3231 2.52082 31.5942 2.62125C31.7749 2.56099 32.1363 2.49069 32.3371 2.48064C32.7086 2.45052 35.2186 2.4003 35.6202 2.4003C35.8411 2.4003 36.3331 2.41034 36.5238 2.44047C36.6042 2.39026 36.7246 2.23961 36.7246 2.06888C36.7246 2.01866 36.6845 1.96845 36.6242 1.93832C36.4435 1.87806 36.0118 1.82784 35.7206 1.80776L35.4094 1.96845ZM32.307 0.692973C32.297 0.713059 32.297 0.743189 32.3171 0.783361C32.4877 1.00431 32.7287 1.22526 32.9395 1.33573C32.9897 1.3759 33.0299 1.3759 33.1203 1.3759C33.562 1.33573 34.3251 1.32569 34.8472 1.31565C34.9074 1.31565 34.9476 1.3056 34.9777 1.25539C35.0379 1.18509 35.048 0.984223 35.0078 0.883792C34.9877 0.823534 34.9476 0.793404 34.8672 0.793404C34.1644 0.793404 33.2709 0.763275 32.3773 0.602586L32.307 0.692973Z" fill="#1C1C1C"/>
<path fill-rule="evenodd" clip-rule="evenodd" d="M6.06908 21.2925C2.31756 25.0733 0 30.279 0 36.026C0 42.4002 2.85102 48.1085 7.34743 51.9453C9.97861 51.3556 11.7841 49.4876 12.7639 46.3413L13.5678 43.91C13.8805 42.9644 14.1261 42.199 14.3047 41.6137L6.06908 21.2925ZM11.3849 54.6506C14.2438 56.117 17.4845 56.9444 20.9183 56.9444C32.4712 56.9444 41.8367 47.5789 41.8367 36.026C41.8367 26.486 35.4504 18.4375 26.7196 15.9226C26.5094 16.1898 26.3459 16.4916 26.2291 16.828L14.2377 49.4479C13.3802 51.7784 12.4293 53.5126 11.3849 54.6506ZM21.9789 15.1341C21.6276 15.1166 21.274 15.1077 20.9183 15.1077C17.1765 15.1077 13.6641 16.0902 10.6251 17.8113C11.6114 20.4766 13.7981 25.6868 17.1854 33.4419L22.2767 18.6515C22.5893 17.7059 22.7456 17.0081 22.7456 16.5578C22.7456 15.9866 22.49 15.5121 21.9789 15.1341ZM32.0625 29.5987C32.281 29.5987 32.3903 29.6837 32.3903 29.8537V40.1264H33.9541C34.2231 40.1264 34.3577 40.5343 34.3577 41.35C34.3577 41.4519 34.3072 41.5369 34.2063 41.6049H32.3903V46.0657C32.3399 46.1507 31.9868 46.1932 31.331 46.1932C30.7089 46.1932 30.3978 46.1252 30.3978 45.9893V41.6049H24.0166C23.8989 41.4519 23.8401 41.1885 23.8401 40.8146L31.4824 29.9046C31.6337 29.7007 31.8271 29.5987 32.0625 29.5987ZM30.3978 40.1264V33.3459C30.3978 33.1929 30.3558 33.1165 30.2717 33.1165C30.2717 33.1335 30.2633 33.1505 30.2465 33.1674L25.6561 39.8205C25.6392 39.8375 25.6308 39.863 25.6308 39.897C25.6308 40.0499 25.6897 40.1264 25.8074 40.1264H30.3978Z" fill="#1C1C1C"/>
</svg>
