<svg width="28" height="28" viewBox="0 0 28 28" fill="none" xmlns="http://www.w3.org/2000/svg">
<path fill-rule="evenodd" clip-rule="evenodd" d="M11.0964 4.30747C11.4789 4.70588 11.4659 5.33891 11.0675 5.72139L3.48564 13H27C27.5523 13 28 13.4477 28 14C28 14.5523 27.5523 15 27 15H3.48564L11.0675 22.2786C11.4659 22.6611 11.4789 23.2941 11.0964 23.6925C10.7139 24.0909 10.0809 24.1039 9.68247 23.7214L0.307468 14.7214C0.111038 14.5328 0 14.2723 0 14C0 13.7277 0.111038 13.4672 0.307468 13.2786L9.68247 4.27861C10.0809 3.89614 10.7139 3.90906 11.0964 4.30747Z" fill="#1C1C1C"/>
</svg>
