<svg width="41" height="41" viewBox="0 0 41 41" fill="none" xmlns="http://www.w3.org/2000/svg">
<g clip-path="url(#clip0_639_4889)">
<path d="M41 20.5195V39.7956C41 40.4603 40.4599 40.9999 39.7946 40.9999H1.20545C0.54012 40.9999 0 40.4603 0 39.7956V20.5195C0 20.2006 0.12521 19.8941 0.353533 19.6684L19.6481 0.392321C20.1195 -0.0786046 20.883 -0.0786046 21.3544 0.392321L26.5297 5.56515C26.4045 -1.43006 26.1565 0.242704 32.5594 0.0391269C33.2247 0.0391269 33.7649 0.57873 33.7649 1.24342V12.7909L40.6465 19.666C40.8723 19.8941 41 20.1982 41 20.5171V20.5195Z" fill="black"/>
<path d="M11.9804 14.134L9.55957 19.8594L14.1438 21.794L16.5646 16.0686L11.9804 14.134Z" fill="white"/>
<path d="M21.0201 24.6941L23.4409 18.9694L18.8572 17.0342L16.4365 22.7589C16.1689 23.3917 15.4397 23.6885 14.8063 23.4211C14.1729 23.1538 13.8758 22.4253 14.1434 21.7925L9.55978 19.8573C8.22176 23.0189 9.70463 26.6661 12.8692 28.0004C13.2621 28.1672 13.6622 28.2874 14.0649 28.3683L14.0158 28.4836L11.5951 34.2083L16.1787 36.1435L18.5994 30.4188L21.0201 24.6941Z" fill="white"/>
<path d="M27.5063 23.7986L29.927 18.0739L25.3434 16.1387L22.9227 21.8634L20.502 27.5881L25.0856 29.5233L27.5063 23.7986Z" fill="white"/>
<path d="M28.6526 24.2817C28.4586 24.2008 28.2647 24.1297 28.0683 24.0684L26.0796 28.7752C26.2908 28.7482 26.5093 28.7752 26.718 28.8635C27.3514 29.1308 27.6484 29.8593 27.3808 30.4921C27.1132 31.1249 26.3841 31.4217 25.7506 31.1543C25.1172 30.887 24.8202 30.1585 25.0878 29.5257L20.5041 27.5905C19.1661 30.7521 20.649 34.3993 23.8136 35.7336C26.9782 37.0703 30.6289 35.5889 31.9645 32.4273C33.3025 29.2657 31.8196 25.6185 28.655 24.2842L28.6526 24.2817Z" fill="white"/>
</g>
<defs>
<clipPath id="clip0_639_4889">
<rect width="41" height="41" fill="white"/>
</clipPath>
</defs>
</svg>
