<svg width="42" height="42" viewBox="0 0 42 42" fill="none" xmlns="http://www.w3.org/2000/svg">
<path fill-rule="evenodd" clip-rule="evenodd" d="M6.06908 6.18482C2.31756 9.96563 0 15.1713 0 20.9183C0 27.2925 2.85102 33.0008 7.34743 36.8376C9.97861 36.2479 11.7841 34.3799 12.7639 31.2336L13.5678 28.8023C13.8805 27.8568 14.1261 27.0913 14.3047 26.506L6.06908 6.18482ZM11.3849 39.5429C14.2438 41.0093 17.4845 41.8367 20.9183 41.8367C32.4712 41.8367 41.8367 32.4712 41.8367 20.9183C41.8367 11.3783 35.4504 3.32983 26.7196 0.814904C26.5094 1.08215 26.3459 1.38394 26.2291 1.72028L14.2377 34.3402C13.3802 36.6707 12.4293 38.4049 11.3849 39.5429ZM21.9789 0.0264199C21.6276 0.00887645 21.274 0 20.9183 0C17.1765 0 13.6641 0.982486 10.6251 2.70356C11.6114 5.36886 13.7981 10.5791 17.1854 18.3342L22.2767 3.54376C22.5893 2.59825 22.7456 1.90038 22.7456 1.45014C22.7456 0.878948 22.49 0.404375 21.9789 0.0264199ZM32.0625 14.4911C32.281 14.4911 32.3903 14.576 32.3903 14.746V25.0187H33.9541C34.2231 25.0187 34.3577 25.4266 34.3577 26.2423C34.3577 26.3442 34.3072 26.4292 34.2063 26.4972H32.3903V30.958C32.3399 31.043 31.9868 31.0855 31.331 31.0855C30.7089 31.0855 30.3978 31.0175 30.3978 30.8816V26.4972H24.0166C23.8989 26.3442 23.8401 26.0808 23.8401 25.707L31.4824 14.7969C31.6337 14.593 31.8271 14.4911 32.0625 14.4911ZM30.3978 25.0187V18.2382C30.3978 18.0852 30.3558 18.0088 30.2717 18.0088C30.2717 18.0258 30.2633 18.0428 30.2465 18.0597L25.6561 24.7128C25.6392 24.7298 25.6308 24.7553 25.6308 24.7893C25.6308 24.9422 25.6897 25.0187 25.8074 25.0187H30.3978Z" fill="#1C1C1C"/>
</svg>
