<svg width="248" height="49" viewBox="0 0 248 49" fill="none" xmlns="http://www.w3.org/2000/svg">
<path d="M20.0359 15.8028C24.6912 15.8028 27.0368 15.659 27.0726 15.3714L28.5229 7.87445C28.9168 5.89685 29.1138 4.24285 29.1138 2.91247C29.1138 2.51695 28.7198 2.17536 27.932 1.88771C27.18 1.60006 26.5712 1.45623 26.1057 1.45623C26.0341 1.45623 25.9983 1.36634 25.9983 1.18656C25.9983 0.683171 26.1415 0.287651 26.428 0C26.8577 0.0359564 27.6993 0.107869 28.9526 0.215738C30.2418 0.287651 31.334 0.323608 32.2293 0.323608C33.0887 0.323608 34.1988 0.269673 35.5596 0.161804C36.9562 0.0539346 37.7619 0 37.9768 0V0.161804C37.9768 1.02476 37.8515 1.45623 37.6008 1.45623C37.3143 1.45623 36.7234 1.60006 35.8282 1.88771C34.9329 2.17536 34.4316 2.44503 34.3242 2.69673C33.787 3.88329 33.3215 5.55526 32.9276 7.71265L29.0063 27.9921C28.6124 29.9697 28.4155 31.5877 28.4155 32.8462C28.4155 33.1338 28.6482 33.4035 29.1138 33.6552C29.6151 33.8709 30.1164 34.0148 30.6178 34.0867L31.3161 34.1945C31.3877 34.1945 31.4235 34.2664 31.4235 34.4103C31.4235 34.8058 31.3161 35.2193 31.1012 35.6508C27.7709 35.471 25.9087 35.3811 25.5148 35.3811C25.4074 35.3811 23.4378 35.471 19.6061 35.6508C19.5345 35.5789 19.4987 35.435 19.4987 35.2193C19.4987 34.5361 19.624 34.1945 19.8747 34.1945C20.3044 34.1945 20.949 34.0867 21.8085 33.8709C22.6679 33.6192 23.1693 33.3316 23.3125 33.008C23.8496 31.7855 24.3152 30.0595 24.7091 27.8303L26.428 18.931V18.8771C26.428 18.6973 25.9983 18.5895 25.1388 18.5535C24.3152 18.4816 22.2919 18.4456 19.069 18.4456C13.9123 18.4456 11.2981 18.6614 11.2265 19.0928L9.50763 27.9921C9.11372 29.9697 8.91676 31.5877 8.91676 32.8462C8.91676 33.1338 9.14953 33.4035 9.61506 33.6552C10.1164 33.8709 10.5998 34.0148 11.0654 34.0867L11.8174 34.1945C11.889 34.1945 11.9248 34.2664 11.9248 34.4103C11.9248 34.8058 11.8174 35.2193 11.6025 35.6508C8.30799 35.471 6.44585 35.3811 6.01613 35.3811C5.94451 35.3811 3.97494 35.471 0.107431 35.6508C0.0358103 35.5789 0 35.435 0 35.2193C0 34.5361 0.125336 34.1945 0.376008 34.1945C0.805731 34.1945 1.45032 34.0867 2.30976 33.8709C3.16921 33.6192 3.67055 33.3316 3.8138 33.008C4.35095 31.7855 4.81648 30.0595 5.2104 27.8303L9.02419 7.87445C9.4181 5.89685 9.61506 4.24285 9.61506 2.91247C9.61506 2.51695 9.22115 2.17536 8.43332 1.88771C7.68131 1.60006 7.07253 1.45623 6.607 1.45623C6.53538 1.45623 6.49957 1.36634 6.49957 1.18656C6.49957 0.683171 6.64281 0.287651 6.92929 0C7.35901 0.0359564 8.20055 0.107869 9.45391 0.215738C10.7431 0.287651 11.8353 0.323608 12.7306 0.323608C13.59 0.323608 14.6822 0.269673 16.0072 0.161804C17.368 0.0539346 18.1737 0 18.4244 0V0.161804C18.4244 1.02476 18.2991 1.45623 18.0484 1.45623C17.7619 1.45623 17.1531 1.60006 16.2221 1.88771C15.3268 2.17536 14.8255 2.44503 14.718 2.69673C14.1451 4.02712 13.6795 5.69909 13.3214 7.71265L11.9785 15.3174V15.3714C11.9785 15.5511 12.4441 15.677 13.3751 15.7489C14.342 15.7849 16.5623 15.8028 20.0359 15.8028Z" fill="black"/>
<path d="M43.5632 12.0274C44.1362 12.0274 44.5838 12.2971 44.9061 12.8364C45.2284 13.3398 45.3895 14.005 45.3895 14.832C45.3895 15.5871 45.2821 16.5399 45.0672 17.6905L42.7038 29.7719C42.5963 30.2034 42.5426 30.6528 42.5426 31.1203C42.5426 32.0192 42.7217 32.4686 43.0798 32.4686C43.2946 32.4686 43.5453 32.3787 43.8318 32.199C44.1541 31.9832 44.4585 31.7315 44.7449 31.4439C45.0672 31.1562 45.3537 30.8865 45.6044 30.6348C45.8551 30.3472 46.0878 30.0955 46.3027 29.8798L46.625 29.5022C46.6966 29.5022 46.8219 29.682 47.001 30.0416C47.2159 30.3652 47.3233 30.5989 47.3233 30.7427C46.8578 31.5338 45.8909 32.5765 44.4227 33.8709C42.9544 35.1654 41.6653 35.8126 40.5551 35.8126C39.9822 35.8126 39.5346 35.5609 39.2123 35.0575C38.89 34.5181 38.7288 33.835 38.7288 33.008C38.7288 32.4327 38.8542 31.4798 39.1048 30.1494L41.3072 18.8771C41.4862 17.7625 41.5757 17.0433 41.5757 16.7197C41.5757 15.8208 41.3967 15.3714 41.0386 15.3714C40.8953 15.3714 40.6984 15.4613 40.4477 15.641C40.197 15.7849 39.9285 15.9826 39.642 16.2343C39.3913 16.486 39.1585 16.7197 38.9437 16.9355C38.7288 17.1512 38.5319 17.3669 38.3528 17.5827L38.0842 17.9063C38.0126 17.9063 37.8694 17.7445 37.6545 17.4209C37.4755 17.0613 37.3859 16.8096 37.3859 16.6658C37.8157 15.9467 38.7109 14.9938 40.0717 13.8073C41.4683 12.6207 42.6321 12.0274 43.5632 12.0274ZM45.121 0.647215C45.6581 0.647215 46.1057 0.862954 46.4638 1.29443C46.8578 1.72591 47.0547 2.2293 47.0547 2.8046C47.0547 3.66755 46.7682 4.42264 46.1953 5.06985C45.6581 5.71707 44.9777 6.04067 44.1541 6.04067C43.5811 6.04067 43.1335 5.82494 42.8112 5.39346C42.4889 4.92603 42.3278 4.3687 42.3278 3.72149C42.3278 2.89449 42.5963 2.17536 43.1335 1.5641C43.6706 0.952844 44.3331 0.647215 45.121 0.647215Z" fill="black"/>
<path d="M46.8398 43.2016C46.8398 43.0937 47.2517 42.6623 48.0753 41.9072C48.9347 41.1881 49.7942 40.2532 50.6536 39.1026C51.5131 37.952 51.9428 36.8373 51.9428 35.7586C51.9428 35.1833 51.8175 34.4462 51.5668 33.5473C51.3519 32.6484 51.2445 32.1091 51.2445 31.9293C51.2445 31.0304 51.6921 30.2393 52.5874 29.5562C53.4827 28.873 54.4495 28.5314 55.488 28.5314C55.7745 28.5314 56.1684 28.6033 56.6698 28.7471C56.7772 28.9988 56.8309 29.4123 56.8309 29.9876C56.8309 30.7068 56.634 31.9113 56.24 33.6013C55.9536 34.7878 55.4701 35.9564 54.7897 37.107C54.1451 38.2936 53.4289 39.3003 52.6411 40.1273C51.8533 40.9543 51.0834 41.6914 50.3314 42.3387C49.6151 42.9859 49.0064 43.4713 48.505 43.7949L47.8067 44.2803C47.6635 44.2803 47.4665 44.1545 47.2159 43.9028C46.9652 43.687 46.8398 43.4533 46.8398 43.2016Z" fill="black"/>
<path d="M84.6018 11.8656C86.643 11.8656 88.2544 12.5488 89.4362 13.9151C89.6152 14.3466 89.7048 14.7241 89.7048 15.0478C89.7048 15.695 89.5257 16.2523 89.1676 16.7197C88.8453 17.1872 88.4156 17.4209 87.8784 17.4209C87.3771 17.4209 86.9295 17.1692 86.5356 16.6658C86.1416 16.1264 85.6403 15.5871 85.0315 15.0478C84.4586 14.5084 83.6886 14.2387 82.7218 14.2387C81.9697 14.2387 81.3789 14.4904 80.9491 14.9938C80.5194 15.4972 80.3046 16.0725 80.3046 16.7197C80.3046 17.6546 80.6448 18.6614 81.3252 19.7401C82.0414 20.7828 82.8113 21.7177 83.6349 22.5447C84.4585 23.3717 85.2106 24.3784 85.891 25.565C86.6072 26.7516 86.9653 27.9561 86.9653 29.1786C86.9653 31.1562 86.2491 32.7563 84.8167 33.9788C83.3842 35.2013 81.54 35.8126 79.284 35.8126C77.2428 35.8126 75.6313 35.1294 74.4496 33.7631C74.2705 33.4754 74.181 33.1338 74.181 32.7383C74.181 32.0911 74.3421 31.5158 74.6644 31.0124C75.0225 30.509 75.4702 30.2573 76.0073 30.2573C76.5087 30.2573 76.9563 30.527 77.3502 31.0663C77.7441 31.5697 78.2276 32.0911 78.8005 32.6304C79.4093 33.1698 80.1971 33.4394 81.164 33.4394C81.9518 33.4394 82.5785 33.1878 83.044 32.6844C83.5454 32.145 83.7961 31.5697 83.7961 30.9585C83.7961 30.0236 83.438 29.0348 82.7218 27.9921C82.0414 26.9134 81.2893 25.9605 80.4657 25.1335C79.6421 24.3065 78.8722 23.2997 78.1559 22.1132C77.4755 20.9266 77.1354 19.7221 77.1354 18.4996C77.1354 16.9894 77.8516 15.5152 79.284 14.0769C80.7164 12.6027 82.489 11.8656 84.6018 11.8656Z" fill="black"/>
<path d="M98.3529 6.25641C98.4604 5.89685 99.3377 5.71707 100.985 5.71707C101.415 5.71707 101.737 5.73505 101.952 5.771L100.609 12.8364H105.497C105.676 12.8364 105.766 13.0702 105.766 13.5376C105.766 13.9691 105.605 14.4904 105.282 15.1017H100.179L97.3324 29.7719C97.2249 30.2034 97.1712 30.6528 97.1712 31.1203C97.1712 32.0192 97.3503 32.4686 97.7084 32.4686C97.9232 32.4686 98.1739 32.3787 98.4604 32.199C98.7827 31.9832 99.0871 31.7315 99.3735 31.4439C99.6958 31.1562 99.9823 30.8865 100.233 30.6348C100.484 30.3472 100.716 30.0955 100.931 29.8798L101.254 29.5022C101.325 29.5022 101.451 29.682 101.63 30.0416C101.844 30.3652 101.952 30.5989 101.952 30.7427C101.486 31.5338 100.519 32.5765 99.0512 33.8709C97.583 35.1654 96.2939 35.8126 95.1837 35.8126C94.6108 35.8126 94.1631 35.5609 93.8409 35.0575C93.5186 34.5181 93.3574 33.835 93.3574 33.008C93.3574 32.4327 93.4827 31.4798 93.7334 30.1494L96.6341 15.1017H92.8203C92.7128 15.1017 92.6591 14.9039 92.6591 14.5084C92.6591 14.041 92.874 13.4836 93.3037 12.8364H97.0638L98.3529 6.25641Z" fill="black"/>
<path d="M112.964 12.0274C113.537 12.0274 113.984 12.2971 114.306 12.8364C114.629 13.3398 114.79 14.005 114.79 14.832C114.79 15.6231 114.682 16.5759 114.468 17.6905L113.608 22.2211C114.503 20.0996 115.828 17.8703 117.583 15.5332C119.374 13.196 120.878 12.0274 122.095 12.0274C123.313 12.0274 124.298 12.6027 125.05 13.7533C125.05 16.1624 124.387 17.3669 123.062 17.3669C122.776 17.3669 122.435 17.1512 122.041 16.7197C121.648 16.2523 121.236 16.0186 120.806 16.0186C119.767 16.0186 118.21 17.5827 116.133 20.7109C114.092 23.8391 112.802 26.8774 112.265 29.8258L111.245 35.489C110.636 35.5968 110.045 35.6508 109.472 35.6508C108.792 35.6508 108.129 35.5968 107.485 35.489L110.707 18.8771C110.887 17.5827 110.976 16.8636 110.976 16.7197C110.976 15.8208 110.797 15.3714 110.439 15.3714C110.296 15.3714 110.099 15.4613 109.848 15.641C109.597 15.7849 109.329 15.9826 109.042 16.2343C108.792 16.486 108.559 16.7197 108.344 16.9355C108.129 17.1512 107.932 17.3669 107.753 17.5827C107.574 17.7984 107.485 17.9063 107.485 17.9063C107.413 17.9063 107.27 17.7445 107.055 17.4209C106.876 17.0613 106.786 16.8096 106.786 16.6658C107.216 15.9467 108.111 14.9938 109.472 13.8073C110.869 12.6207 112.032 12.0274 112.964 12.0274Z" fill="black"/>
<path d="M139.123 12.0274C140.484 12.0274 141.791 12.2611 143.044 12.7286L139.768 29.7719C139.66 30.2034 139.606 30.6528 139.606 31.1203C139.606 32.0192 139.785 32.4686 140.144 32.4686C140.358 32.4686 140.609 32.3787 140.896 32.199C141.218 31.9832 141.522 31.7315 141.809 31.4439C142.131 31.1562 142.417 30.8865 142.668 30.6348C142.919 30.3472 143.152 30.0955 143.366 29.8798L143.689 29.5022C143.76 29.5022 143.886 29.682 144.065 30.0416C144.28 30.3652 144.387 30.5989 144.387 30.7427C143.922 31.5338 142.955 32.5765 141.486 33.8709C140.018 35.1654 138.729 35.8126 137.619 35.8126C137.046 35.8126 136.598 35.5609 136.276 35.0575C135.954 34.5181 135.793 33.835 135.793 33.008C135.793 32.3967 135.918 31.4439 136.169 30.1494C136.24 29.7539 136.294 29.4483 136.33 29.2326C136.401 28.9809 136.437 28.8191 136.437 28.7471C136.079 29.3944 135.667 30.0595 135.202 30.7427C134.736 31.3899 134.145 32.127 133.429 32.954C132.713 33.781 131.943 34.4642 131.119 35.0036C130.332 35.5069 129.58 35.7586 128.863 35.7586C127.288 35.7586 126.034 35.0575 125.103 33.6552C124.208 32.2169 123.76 30.491 123.76 28.4775C123.76 25.9246 124.512 23.3717 126.016 20.8188C127.556 18.2299 129.526 16.1264 131.925 14.5084C134.324 12.8544 136.724 12.0274 139.123 12.0274ZM136.867 14.5084C134.754 14.5084 132.695 15.8927 130.69 18.6614C128.72 21.3941 127.735 24.2885 127.735 27.3448C127.735 30.8686 128.648 32.6304 130.475 32.6304C131.764 32.6304 133.196 31.318 134.772 28.6932C136.383 26.0684 137.458 23.4076 137.995 20.7109L139.069 15.2096C138.64 14.7421 137.905 14.5084 136.867 14.5084Z" fill="black"/>
<path d="M154.593 12.0274C155.166 12.0274 155.614 12.2971 155.936 12.8364C156.258 13.3398 156.419 14.005 156.419 14.832C156.419 15.6231 156.312 16.5759 156.097 17.6905L155.13 22.6525C155.488 22.0053 156.258 20.8907 157.44 19.3086C158.657 17.7265 160.126 16.1264 161.845 14.5084C163.599 12.8544 165.014 12.0274 166.088 12.0274C167.879 12.0274 168.774 13.214 168.774 15.5871C168.774 17.2051 168.523 19.1648 168.022 21.466L166.249 29.7719C166.142 30.2034 166.088 30.6528 166.088 31.1203C166.088 32.0192 166.267 32.4686 166.625 32.4686C166.84 32.4686 167.091 32.3787 167.377 32.199C167.7 31.9832 168.004 31.7315 168.29 31.4439C168.613 31.1562 168.899 30.8865 169.15 30.6348C169.401 30.3472 169.633 30.0955 169.848 29.8798L170.17 29.5022C170.242 29.5022 170.367 29.682 170.546 30.0416C170.761 30.3652 170.869 30.5989 170.869 30.7427C170.403 31.5338 169.436 32.5765 167.968 33.8709C166.5 35.1654 165.211 35.8126 164.101 35.8126C163.528 35.8126 163.08 35.5609 162.758 35.0575C162.435 34.5181 162.274 33.835 162.274 33.008C162.274 32.4327 162.4 31.4798 162.65 30.1494L164.53 21.2502C164.781 20.0637 164.906 19.0928 164.906 18.3378C164.906 16.7916 164.566 16.0186 163.886 16.0186C162.704 16.0186 160.86 17.6546 158.353 20.9266C155.882 24.1627 154.289 27.6145 153.572 31.2821L152.659 35.489C152.194 35.6328 151.639 35.7047 150.994 35.7047C150.349 35.7047 149.741 35.6328 149.168 35.489L152.337 18.8771C152.516 17.5827 152.606 16.8636 152.606 16.7197C152.606 15.8208 152.426 15.3714 152.068 15.3714C151.925 15.3714 151.728 15.4613 151.477 15.641C151.227 15.7849 150.958 15.9826 150.672 16.2343C150.421 16.486 150.188 16.7197 149.973 16.9355C149.759 17.1512 149.562 17.3669 149.383 17.5827C149.204 17.7984 149.114 17.9063 149.114 17.9063C149.042 17.9063 148.899 17.7445 148.684 17.4209C148.505 17.0613 148.416 16.8096 148.416 16.6658C148.845 15.9467 149.741 14.9938 151.101 13.8073C152.498 12.6207 153.662 12.0274 154.593 12.0274Z" fill="black"/>
<path d="M188.649 41.8532C188.649 41.0622 188.416 40.3251 187.95 39.6419C187.521 38.9947 186.876 38.4194 186.017 37.916C185.157 37.4486 184.369 37.071 183.653 36.7834C182.973 36.5317 182.131 36.244 181.128 35.9204C180.448 36.2081 179.947 36.4238 179.624 36.5677C179.338 36.7115 178.837 36.9812 178.12 37.3767C177.404 37.7722 176.867 38.1318 176.509 38.4554C176.187 38.779 175.864 39.2104 175.542 39.7498C175.256 40.2891 175.112 40.8465 175.112 41.4218C175.112 44.2983 177.458 45.7365 182.149 45.7365C183.904 45.7365 185.426 45.359 186.715 44.6039C188.004 43.8848 188.649 42.9679 188.649 41.8532ZM185.157 14.023C183.617 14.023 182.346 14.8859 181.343 16.6119C180.376 18.3018 179.893 20.1536 179.893 22.1671C179.893 23.5694 180.179 24.738 180.752 25.6729C181.325 26.6077 182.131 27.0752 183.17 27.0752C184.674 27.0752 185.909 26.2841 186.876 24.702C187.879 23.12 188.38 21.43 188.38 19.6322C188.38 18.1939 188.094 16.8995 187.521 15.7489C186.948 14.5983 186.16 14.023 185.157 14.023ZM186.017 11.9735C187.091 11.9735 188.273 12.2252 189.562 12.7286C190.851 13.196 192.104 13.4297 193.322 13.4297H195.632C195.846 13.4297 195.954 13.5735 195.954 13.8612C195.954 14.1129 195.882 14.4185 195.739 14.7781C195.632 15.1376 195.506 15.3893 195.363 15.5332H192.355C192.14 15.5332 192.033 15.641 192.033 15.8568C192.247 17.1512 192.355 18.0861 192.355 18.6614C192.355 19.9918 192.158 21.2323 191.764 22.3829C191.406 23.4975 190.905 24.4144 190.26 25.1335C189.651 25.8526 189.132 26.392 188.702 26.7516C188.308 27.1111 187.897 27.4168 187.467 27.6684C187.109 27.8842 186.375 28.2617 185.264 28.8011C184.19 29.3045 183.349 29.7719 182.74 30.2034C182.131 30.5989 181.827 30.9764 181.827 31.336C181.827 31.6596 182.167 31.9832 182.847 32.3068C183.564 32.5945 184.423 32.9181 185.426 33.2776C186.464 33.6013 187.485 34.0148 188.487 34.5181C189.49 35.0215 190.332 35.7227 191.012 36.6216C191.728 37.5205 192.086 38.5453 192.086 39.6959C192.086 42.2488 190.94 44.2803 188.649 45.7905C186.393 47.3006 183.349 48.0557 179.517 48.0557C177.046 48.0557 175.023 47.5883 173.447 46.6534C171.907 45.7186 171.137 44.4241 171.137 42.7701C171.137 41.9072 171.37 41.0622 171.836 40.2352C172.301 39.4442 172.964 38.725 173.823 38.0778C174.718 37.4306 175.542 36.8913 176.294 36.4598C177.046 36.0283 177.905 35.5968 178.872 35.1654L177.905 34.5181C177.01 33.9069 176.563 33.2597 176.563 32.5765C176.563 31.9652 177.189 31.2641 178.443 30.473C179.732 29.682 180.896 29.1606 181.934 28.9089C181.254 28.9089 180.466 28.7292 179.571 28.3696C178.711 28.01 177.87 27.3628 177.046 26.428C176.258 25.4571 175.864 24.3245 175.864 23.0301C175.864 20.0097 176.903 17.4209 178.98 15.2635C181.093 13.0701 183.438 11.9735 186.017 11.9735Z" fill="black"/>
<path d="M209.49 12.0274C211.137 12.0274 212.319 12.4589 213.035 13.3218C213.787 14.1488 214.163 15.0657 214.163 16.0725C214.163 17.6546 213.358 19.2187 211.746 20.7648C210.135 22.3109 208.362 23.5155 206.428 24.3784C204.53 25.2054 202.991 25.6189 201.809 25.6189C201.666 25.6189 201.594 26.2482 201.594 27.5066C201.594 29.1247 201.898 30.3652 202.507 31.2281C203.152 32.0551 204.011 32.4686 205.085 32.4686C205.372 32.4686 205.641 32.4327 205.891 32.3608C206.178 32.2888 206.446 32.199 206.697 32.0911C206.948 31.9832 207.198 31.8753 207.449 31.7675C207.7 31.6236 207.932 31.4618 208.147 31.2821C208.362 31.1023 208.559 30.9405 208.738 30.7967C208.953 30.6528 209.132 30.509 209.275 30.3652C209.454 30.1854 209.58 30.0416 209.651 29.9337C209.759 29.8258 209.848 29.7359 209.92 29.664L210.081 29.5022C210.153 29.5022 210.278 29.682 210.457 30.0416C210.672 30.3652 210.779 30.5989 210.779 30.7427C210.278 31.6057 209.275 32.6664 207.771 33.9249C206.267 35.1833 204.781 35.8126 203.313 35.8126C201.451 35.8126 200.018 35.0934 199.016 33.6552C198.049 32.181 197.565 30.1674 197.565 27.6145C197.565 24.1627 198.872 20.7109 201.487 17.2591C204.101 13.7713 206.769 12.0274 209.49 12.0274ZM208.953 14.2387C207.27 14.2387 205.676 15.4613 204.172 17.9063C202.704 20.3154 201.97 22.1851 201.97 23.5155C201.97 23.6593 202.042 23.7312 202.185 23.7312C203.474 23.7312 205.139 22.8683 207.18 21.1424C209.257 19.4165 210.296 17.6546 210.296 15.8568C210.296 14.7781 209.848 14.2387 208.953 14.2387Z" fill="black"/>
<path d="M224.208 12.0274C224.781 12.0274 225.229 12.2971 225.551 12.8364C225.873 13.3398 226.035 14.005 226.035 14.832C226.035 15.6231 225.927 16.5759 225.712 17.6905L224.853 22.2211C225.748 20.0996 227.073 17.8703 228.828 15.5332C230.618 13.196 232.122 12.0274 233.34 12.0274C234.557 12.0274 235.542 12.6027 236.294 13.7533C236.294 16.1624 235.632 17.3669 234.307 17.3669C234.02 17.3669 233.68 17.1512 233.286 16.7197C232.892 16.2523 232.48 16.0186 232.051 16.0186C231.012 16.0186 229.454 17.5827 227.377 20.7109C225.336 23.8391 224.047 26.8774 223.51 29.8258L222.489 35.489C221.881 35.5968 221.29 35.6508 220.717 35.6508C220.036 35.6508 219.374 35.5968 218.729 35.489L221.952 18.8771C222.131 17.5827 222.221 16.8636 222.221 16.7197C222.221 15.8208 222.042 15.3714 221.684 15.3714C221.54 15.3714 221.343 15.4613 221.093 15.641C220.842 15.7849 220.573 15.9826 220.287 16.2343C220.036 16.486 219.804 16.7197 219.589 16.9355C219.374 17.1512 219.177 17.3669 218.998 17.5827C218.819 17.7984 218.729 17.9063 218.729 17.9063C218.658 17.9063 218.514 17.7445 218.299 17.4209C218.12 17.0613 218.031 16.8096 218.031 16.6658C218.461 15.9467 219.356 14.9938 220.717 13.8073C222.113 12.6207 223.277 12.0274 224.208 12.0274Z" fill="black"/>
<path d="M236.831 33.5473C236.831 32.5405 237.172 31.6956 237.852 31.0124C238.532 30.3292 239.374 29.9876 240.377 29.9876C241.021 29.9876 241.558 30.2393 241.988 30.7427C242.454 31.2461 242.686 31.8214 242.686 32.4686C242.686 33.5114 242.346 34.4103 241.666 35.1654C241.021 35.8845 240.197 36.244 239.195 36.244C238.514 36.244 237.941 35.9744 237.476 35.435C237.046 34.8957 236.831 34.2664 236.831 33.5473ZM246.07 1.45623C246.608 1.45623 247.019 1.68995 247.306 2.15738C247.592 2.62482 247.736 3.16416 247.736 3.77542C247.736 4.2069 247.431 5.53729 246.822 7.76658C246.249 9.95992 245.444 12.9623 244.405 16.7737C243.367 20.585 242.525 23.7672 241.881 26.3201C241.809 26.6437 241.576 26.9313 241.182 27.183C240.824 27.3988 240.556 27.5066 240.377 27.5066C240.162 27.5066 240.054 27.183 240.054 26.5358C240.054 26.4639 240.197 25.1695 240.484 22.6525C240.806 20.1356 241.2 17.0613 241.666 13.4297C242.131 9.79812 242.543 6.77778 242.901 4.3687C243.009 3.75744 243.367 3.12821 243.975 2.48099C244.584 1.79782 245.283 1.45623 246.07 1.45623Z" fill="black"/>
</svg>
