<svg width="152" height="152" viewBox="0 0 152 152" fill="none" xmlns="http://www.w3.org/2000/svg">
<g filter="url(#filter0_d)">
<rect x="12" y="12" width="120" height="120" rx="60" fill="black"/>
</g>
<path d="M47.2 67.66C47.2 68.428 47.284 69.184 47.452 69.928C47.62 70.672 47.872 71.368 48.208 72.016C48.544 72.664 48.97 73.246 49.486 73.762C50.002 74.266 50.614 74.668 51.322 74.968L49.972 76.894C49.012 76.462 48.208 75.856 47.56 75.076C46.924 74.284 46.42 73.378 46.048 72.358C45.676 73.474 45.154 74.458 44.482 75.31C43.81 76.162 42.976 76.822 41.98 77.29L40.558 75.328C41.278 75.016 41.908 74.596 42.448 74.068C42.988 73.528 43.432 72.922 43.78 72.25C44.128 71.566 44.386 70.834 44.554 70.054C44.734 69.262 44.824 68.464 44.824 67.66V65.248H47.2V67.66ZM54.508 63.952V80.584H52.132V63.952H54.508ZM65.5266 73.384C64.6266 73.096 63.8646 72.676 63.2406 72.124C62.6166 71.56 62.1246 70.912 61.7646 70.18C61.3926 70.984 60.8826 71.692 60.2346 72.304C59.5866 72.916 58.7826 73.378 57.8226 73.69L56.5806 71.836C57.2526 71.62 57.8346 71.332 58.3266 70.972C58.8186 70.612 59.2206 70.216 59.5326 69.784C59.8566 69.34 60.0966 68.866 60.2526 68.362C60.4086 67.858 60.4926 67.348 60.5046 66.832H57.2106V64.942H66.1746V66.832H62.9346C62.9466 67.312 63.0306 67.786 63.1866 68.254C63.3426 68.722 63.5706 69.166 63.8706 69.586C64.1826 70.006 64.5726 70.384 65.0406 70.72C65.5206 71.056 66.0846 71.332 66.7326 71.548L65.5266 73.384ZM58.8126 74.698H69.8826V80.566H67.5066V76.588H58.8126V74.698ZM72.0786 69.928H69.8826V73.96H67.5066V63.97H69.8826V67.966H72.0786V69.928ZM77.6792 75.22C78.2432 75.22 78.7052 75.046 79.0652 74.698C79.4252 74.338 79.6052 73.834 79.6052 73.186C79.6052 72.562 79.4252 72.07 79.0652 71.71C78.7052 71.35 78.2432 71.17 77.6792 71.17C77.1152 71.17 76.6472 71.35 76.2752 71.71C75.9152 72.07 75.7352 72.568 75.7352 73.204C75.7352 73.84 75.9152 74.338 76.2752 74.698C76.6472 75.046 77.1152 75.22 77.6792 75.22ZM77.6792 69.244C78.2792 69.244 78.8312 69.34 79.3352 69.532C79.8512 69.724 80.2952 70 80.6672 70.36C81.0392 70.708 81.3272 71.122 81.5312 71.602C81.7472 72.082 81.8552 72.61 81.8552 73.186C81.8552 73.774 81.7472 74.314 81.5312 74.806C81.3272 75.286 81.0392 75.706 80.6672 76.066C80.2952 76.414 79.8512 76.684 79.3352 76.876C78.8312 77.068 78.2792 77.164 77.6792 77.164C77.0792 77.164 76.5212 77.068 76.0052 76.876C75.4892 76.684 75.0392 76.414 74.6552 76.066C74.2832 75.706 73.9892 75.286 73.7732 74.806C73.5692 74.314 73.4672 73.774 73.4672 73.186C73.4672 72.61 73.5692 72.082 73.7732 71.602C73.9892 71.122 74.2832 70.708 74.6552 70.36C75.0392 70 75.4892 69.724 76.0052 69.532C76.5212 69.34 77.0792 69.244 77.6792 69.244ZM78.8492 66.418H82.4492V68.308H72.8012V66.418H76.4732V64.258H78.8492V66.418ZM88.2812 72.412H85.9052V80.548H83.5292V63.97H85.9052V70.45H88.2812V72.412ZM97.8238 65.68C97.8238 66.952 97.7038 68.164 97.4638 69.316C97.2238 70.456 96.8098 71.536 96.2218 72.556C95.6458 73.564 94.8718 74.506 93.8998 75.382C92.9278 76.246 91.7038 77.032 90.2278 77.74L88.9858 75.868C90.0418 75.364 90.9538 74.818 91.7218 74.23C92.4898 73.642 93.1318 73.012 93.6478 72.34C94.1638 71.656 94.5598 70.924 94.8358 70.144C95.1238 69.352 95.3098 68.494 95.3938 67.57H89.8678V65.68H97.8238ZM102.756 63.952V80.53H100.362V63.952H102.756Z" fill="white"/>
<defs>
<filter id="filter0_d" x="0" y="0" width="152" height="152" filterUnits="userSpaceOnUse" color-interpolation-filters="sRGB">
<feFlood flood-opacity="0" result="BackgroundImageFix"/>
<feColorMatrix in="SourceAlpha" type="matrix" values="0 0 0 0 0 0 0 0 0 0 0 0 0 0 0 0 0 0 127 0"/>
<feMorphology radius="3" operator="dilate" in="SourceAlpha" result="effect1_dropShadow"/>
<feOffset dx="4" dy="4"/>
<feGaussianBlur stdDeviation="6.5"/>
<feColorMatrix type="matrix" values="0 0 0 0 0 0 0 0 0 0 0 0 0 0 0 0 0 0 0.13 0"/>
<feBlend mode="normal" in2="BackgroundImageFix" result="effect1_dropShadow"/>
<feBlend mode="normal" in="SourceGraphic" in2="effect1_dropShadow" result="shape"/>
</filter>
</defs>
</svg>
